<svg xmlns="http://www.w3.org/2000/svg" width="292.92" height="64" viewBox="0 0 292.92 64"><defs><style>.a{fill:#f34620;}</style></defs><g transform="translate(-974.354 -301.905)"><path class="a" d="M1231.34,311.877l.009.008s.007,0,0-.009Z" transform="translate(21.618 1.227)"/><path class="a" d="M1213.944,306.329c-2.064.365-3.572,1.7-2.994,2.425C1213.728,309.08,1215.734,307.193,1213.944,306.329Z" transform="translate(19.094 0.544)"/><path class="a" d="M1216.882,311.5c-.04-.652-1.346-.45-1.654-.919a10.327,10.327,0,0,0,2.035-1.374c.079-.459-.74-.316-.522-.871-2.346.752-4.607,1.49-4.314,3.524a25.994,25.994,0,0,1,3.1.555C1216.471,312.277,1215.935,311.631,1216.882,311.5Z" transform="translate(19.288 0.791)"/><path class="a" d="M985.955,311.877l.009.008s.007,0,0-.009Z" transform="translate(1.428 1.227)"/><path class="a" d="M977.472,306.329c-2.064.365-3.573,1.7-2.993,2.425C977.257,309.08,979.262,307.193,977.472,306.329Z" transform="translate(0 0.544)"/><path class="a" d="M980.411,311.5c-.04-.652-1.346-.45-1.655-.919a10.261,10.261,0,0,0,2.035-1.374c.08-.459-.739-.316-.522-.871-2.346.752-4.606,1.49-4.314,3.524a25.986,25.986,0,0,1,3.1.555C980,312.277,979.464,311.631,980.411,311.5Z" transform="translate(0.194 0.791)"/><path class="a" d="M1266.986,336.394c-.3-1-.508-2-.787-2.926.1-.012.192-.014.288-.03-.209-1.4-1.115-2.388-1.237-3.76-.341-.211-3.208-1.228-3.911-2.455l-.015-.007a38.2,38.2,0,0,0-5.544-2.394,10.757,10.757,0,0,0-1.967.089c.027-.262.05-.522.056-.778,1-.646,3.065-1.366,3.587-2.16-.731-.874-1.181-1.532-3.724-2.6a6.3,6.3,0,0,1,2.516-.782c-.019-1.084-.929-.736-.613-2.356a3.39,3.39,0,0,1-1.492-1.84c1.037-1.229,1.855.243,2.315-2.574-1.734-.476-2.594-1.041-3.994-1.392l-2.406-.1c.308-.542,1.452-1.452,1.663-2.5.193-.709.629-.99.5-1.325a1.382,1.382,0,0,1,.409-1.574c.543-.415,1.584-1.459,2.144-1.818-.869-.234-5.933-.827-5.933-.827-8.231-.03-16.937-.309-19.614-.352v0c-2.207-.217-4.663.891-5.883,1.185-1.538.421-2.938-.636-4.383-.779-.357-.035-.96.633-1.458.6-2-.105-4.37.514-6.883.425-2.978-.115-6.331-.592-9.388.183-2.155-2.172-4.4-.544-6.885-.73a16.781,16.781,0,0,0-4.588-.195,54.534,54.534,0,0,1-5.566.832c-13.2-.149-41.285-.558-43.847.093-3.287.419-4.4-.544-6.885-.73a16.787,16.787,0,0,0-4.589-.195c-10.312,2.145-22.277.789-32.539,1.784-.441-.25-.617-.861-1.252-.839-11.166.452-21.716.475-33.792.085-.544.124-.627.869-1.251.886-12.351.481-22.491-.646-33.792.662-4.566-1.361-9.414.131-14.6.285-1.239.041-2.534-.829-3.756-.788-.54.015-1.1.5-1.668.607a58.252,58.252,0,0,1-10.168.519l-11.74-.309c.308.542,2.431.934,2.641,1.979a1.727,1.727,0,0,1-.005,1.3,1.385,1.385,0,0,0,.407,1.576c.543.415,1.091.85,1.651,1.209-.869.234-1.563.414-1.778.452,5.663,5.311-.935,3.859-2.094,6.734.734.02,2.524,2.421,3.838,2.874a10.089,10.089,0,0,0-2.053.632c.212,1.343,1.15,1.789,1.774,2.43-.179.247-.511.1-.436.993.02,1.071.595.742.8,1.345-.616.033-.923-.4-1.353.177-3.823-.216-7.732-1.242-9.887,2.031,2.717.839,8.34.855,10.882,1.925-2.219.919-5.235-.108-8.216.141.02,1.084.929.735.612,2.356a15.214,15.214,0,0,1,3.079,1.411c.837,1.306-1.107,1.268-.415,2.332,1.025.663.772-1.49,1.647-1.967-.15.078.978,1.031,1.025,1.026.149-.017.453-.528.762-.808.236.636.42,1.367.642,2.1a1.4,1.4,0,0,0-.309.258,25.576,25.576,0,0,0-4.463,2.238c-2.171-.032-4.109.378-5.408,2.352a17.017,17.017,0,0,0,2.464.5,3.169,3.169,0,0,0,.749,1.545c-.182.006-.365,0-.547.02.02,1.084.929.735.612,2.356.185.081.376.152.565.227-.008.007-.01.015-.017.022-1.322,1.358-3.083.756-3.915,3.286.327,1.088.556,2.188.861,3.2-.105.015-.209.016-.314.033.228,1.527,1.218,2.61,1.352,4.109a13.643,13.643,0,0,0-2.77,1.758c1.86,1.462,4.368,1.367,7.044.923l.016.007c1.939,1.191,4.011,2.7,6.059,2.661v-.045c2.917-.019-.091-.01,3.342-.155a14.875,14.875,0,0,1-4.819,2.6l.026.238h6.912c-.059-.072-.117-.144-.173-.219,4.811-1.276,9.091,1.725,13.384-1.128,4.752,2.877,11.105-1.212,15.415,1.129.357-.288.086-.634-.151-.949-1.732-.087-3.5-.209-5.357-.413-.033-1.654,1.2-.322,1.231-1.82.419.569,1.535,1.97,1.628-.249.231.406.265,1.247.533,1.569,2.648-.687,5.62.766,7.867-1.226a4.27,4.27,0,0,0,4.06.5c.287.694-.04.665-.409.6a.636.636,0,0,0,.071.162c.212-.022.423-.045.638-.064a.29.29,0,0,1,.316-.031c.541-.043,1.093-.058,1.652-.051a2.153,2.153,0,0,1,.038-.814c.3-.193.294.289.269.809.132,0,.268.014.4.02a3.035,3.035,0,0,1,.142-.787c.9.413,2.233-.345,2.914.967a18.749,18.749,0,0,0,5.648-.384,4.124,4.124,0,0,0,.668.559c1.053-.318,2.213.745,2.824-.461a3.379,3.379,0,0,0,1.648.714,7.154,7.154,0,0,1,1.443-.085c1.5-.335,2.93-1.223,4.364-.761a7.353,7.353,0,0,0,.01.979c.065-.011.136-.006.2-.02.082-.017.164-.03.245-.047a3.053,3.053,0,0,0-.048-.885c2.235-1.1,4.8.076,7.185-.1.021,0,.03.014.049.016.333-.026.668-.048,1-.069.432-.56.986-.406,1.574-.089q1.547-.073,3.107-.105c.034-.077.071-.136.1-.226a1.484,1.484,0,0,1,.2.218q.917-.019,1.836-.03c0-.111,0-.221,0-.337,3.533-1.677,8.178.6,11.4-.86.305.252.689.341.938.708,1.142-1.244,2.468-.546,3.808-.568,2.613-.05,5.8-.981,9.11-1.253,5.035-.415,10.716-.642,15.6.507-.239,1.176-1.6,1.34-1.909.394-2.282.97-5,.85-7.619.993a.975.975,0,0,0-.452.449c6.128-.057,12.347.021,19.037.235-.279-.138-.553-.281-.811-.441.067-.268.131-.537.284-.582a3.193,3.193,0,0,0,1.512.709c.207-.252.385-.544.765-.555,12.009-.481,21.869.646,32.856-.661,4.44,1.361,9.153-.133,14.2-.285,1.205-.042,2.464.829,3.653.787.523-.015,1.07-.5,1.621-.606.638-.124,1.29-.2,1.942-.269v0l8.086.489h3.275c2.093.278,4.174.587,6.2.841a4.755,4.755,0,0,0,.447-.506,3.035,3.035,0,0,0,.3.6c.064.007,4.4-.368,4.466-.361l-.022-.014a150.068,150.068,0,0,0,16.723-.674c4.439,1.361,9.152-.133,14.2-.285,1.2-.042,2.463.829,3.652.787.524-.015,1.07-.5,1.622-.606.638-.124,1.289-.2,1.941-.269v0l8.086.489h3.274c2.094.278,4.175.587,6.2.841a4.511,4.511,0,0,0,.447-.506,2.969,2.969,0,0,0,.3.6c.063.007,4.4-.368,4.465-.361l-4.273-2.721h-.044c.09-.1.152-.265.117-.677-.017-.981-.545-.68-.732-1.232.563-.03.845.369,1.239-.162,3.5.2,7.076,1.136,9.048-1.858-2.487-.768-7.633-.784-9.959-1.762,2.031-.841,4.792.1,7.52-.13-.018-.991-.851-.672-.561-2.155a13.884,13.884,0,0,1-2.817-1.293c-.766-1.195,1.013-1.16.38-2.134-.939-.606-.708,1.363-1.508,1.8.137-.073-.9-.944-.938-.939-.136.015-.415.482-.7.739-.216-.581-.384-1.25-.587-1.922a1.29,1.29,0,0,0,.282-.235,23.56,23.56,0,0,0,4.085-2.048c1.988.028,3.761-.347,4.949-2.153a15.454,15.454,0,0,0-2.256-.458,2.9,2.9,0,0,0-.685-1.414c.166-.006.333,0,.5-.019-.017-.993-.85-.673-.56-2.156-.169-.073-.343-.14-.517-.207.007-.007.009-.014.016-.021C1264.615,338.158,1266.226,338.71,1266.986,336.394Zm-273.939,27.6c1.221-.706,3.027-.067,4.472-.245C996.121,364.877,994.673,364.266,993.047,363.992Zm18.694.379c-.639.09-1.9.38-2.436-.374,1.018-2.02,1.606.482,2.714-1.166.662.7,3.058,1.957,3.12-.527.271.007.543.017.814.026-.122.45-.114,1.2-.547.912.822.753,1.558-.235,2.435.39C1016.466,365.509,1013.8,364.081,1011.741,364.371Zm29.86-5.869c.1-1.744.95-3.118,1.52-2.7C1043.582,358.071,1042.373,359.906,1041.6,358.5Zm4.185,2.1c-.478.026-.435-1.074-.8-1.288a9.036,9.036,0,0,1-.833,1.813c-.328.108-.289-.584-.675-.352.357-2.014.711-3.954,2.211-3.9a23.826,23.826,0,0,0,.653,2.519C1046.318,360.188,1045.807,359.8,1045.786,360.6Zm73.488,2.105c-.422-.209-.541.607-.81-.1C1118.34,361.3,1119.451,361.434,1119.274,362.706ZM1209.13,312.8v-.006l.006,0Zm1.02-.063a.946.946,0,0,1-1.014.061C1209.516,312.734,1210.255,312.314,1210.15,312.736Zm2.6,1.447a5.863,5.863,0,0,1,.988-.994c-.2-.26-.877-.035-.943-.428.5-.156.166-.506.658-.662a12.173,12.173,0,0,0,1.687.094c.3,1.212-.857,1.836-2.052,2.477C1213.166,314.317,1212.741,314.468,1212.751,314.183Zm2.082,1.621c-1.01-.384-.075-1.688,1.427-1.706C1216.618,314.489,1215.906,315.421,1214.834,315.8Z" transform="translate(0.288 0)"/></g></svg>