<svg xmlns="http://www.w3.org/2000/svg" width="185" height="64" viewBox="0 0 185 64"><defs><style>.a{fill:#fff;}</style></defs><g transform="translate(-784.891 -348.953)"><path class="a" d="M796.492,358.925l.008.007s.006,0,0-.008Z"/><path class="a" d="M787.667,353.377c-1.838.325-3.181,1.518-2.665,2.159C787.476,355.827,789.261,354.145,787.667,353.377Z"/><path class="a" d="M790.457,358.2c-.037-.581-1.2-.4-1.474-.818a9.165,9.165,0,0,0,1.812-1.223c.071-.409-.658-.281-.465-.776-2.089.67-4.1,1.327-3.841,3.138a22.938,22.938,0,0,1,2.761.494C790.091,358.892,789.614,358.318,790.457,358.2Z"/><g transform="translate(787.23 348.953)"><path class="a" d="M965.8,392.877a3.966,3.966,0,0,0,4.026-2.153,10.541,10.541,0,0,0-1.836-.459,3.208,3.208,0,0,0-.557-1.415c.136,0,.272,0,.408-.017-.015-.993-.692-.673-.457-2.156-.137-.074-.279-.14-.419-.207.005-.007.007-.015.012-.021.985-1.243,2.3-.691,2.914-3.008-.243-1-.413-2-.64-2.926.078-.012.155-.014.234-.03-.17-1.4-.907-2.388-1.007-3.761-.278-.21-2.61-1.227-3.183-2.454l-.011-.007a28.29,28.29,0,0,0-4.511-2.394,7.15,7.15,0,0,0-1.6.089c.022-.262.041-.522.046-.78.813-.644,2.494-1.364,2.919-2.159a6.364,6.364,0,0,0-3.029-2.6c1.806-.917,1.679-.688,2.046-.782-.016-1.086-.755-.736-.5-2.357a3.4,3.4,0,0,1-1.213-1.84c.843-1.228,1.508.244,1.883-2.573-1.41-.476-2.11-1.042-3.249-1.392l-1.957-.1a8.646,8.646,0,0,0,1.352-2.5c.158-.709.511-.99.405-1.325a1.593,1.593,0,0,1,.333-1.574c.442-.415,1.288-1.459,1.743-1.818-.706-.234-4.825-.827-4.825-.827-6.7-.03-13.777-.309-15.955-.352v0c-1.794-.217-3.792.891-4.785,1.185a8.938,8.938,0,0,1-1.885.266c-7.6-.169-10.36-.4-12.156.165-2.674.42-3.581-.543-5.6-.729a11.118,11.118,0,0,0-3.733-.194c-8.388,2.144-18.121.789-26.468,1.784-.359-.25-.5-.861-1.019-.84-9.082.454-17.663.476-27.486.087-.442.124-.51.869-1.017.886-10.047.481-18.295-.646-27.487.662-3.714-1.361-7.657.131-11.876.285-1.008.041-2.061-.829-3.055-.788-.439.015-.9.5-1.356.607a38.656,38.656,0,0,1-8.271.519l-9.55-.309c.251.542,1.977.934,2.149,1.979a2.1,2.1,0,0,1,0,1.3,1.6,1.6,0,0,0,.331,1.576c.442.415.888.849,1.343,1.21-.707.234-1.272.414-1.446.452,4.606,5.311-.76,3.859-1.7,6.734.6.019,2.053,2.421,3.122,2.874a7.124,7.124,0,0,0-1.67.632,4.183,4.183,0,0,0,1.443,2.43c-.146.247-.416.1-.355.991.015,1.072.484.744.65,1.346-.5.032-.751-.4-1.1.177-3.109-.216-6.288-1.242-8.041,2.031,2.21.839,6.784.855,8.852,1.924-1.8.918-4.258-.108-6.683.141.016,1.084.756.735.5,2.356a11.4,11.4,0,0,1,2.5,1.411c.681,1.306-.9,1.268-.337,2.331.834.663.628-1.488,1.34-1.965-.122.078.8,1.031.834,1.026.121-.017.368-.528.62-.808.192.636.342,1.367.522,2.1a1.259,1.259,0,0,0-.252.257,19.677,19.677,0,0,0-3.63,2.239,4.329,4.329,0,0,0-4.4,2.352,11.63,11.63,0,0,0,2,.5,3.519,3.519,0,0,0,.609,1.547c-.148.006-.3,0-.445.02.016,1.084.756.735.5,2.356.15.081.3.152.459.226-.006.009-.008.016-.014.024-1.076,1.358-2.508.755-3.184,3.285.266,1.089.452,2.19.7,3.2-.086.015-.17.016-.255.033.185,1.527.991,2.61,1.1,4.108a11.127,11.127,0,0,0-2.254,1.76c1.514,1.462,3.554,1.367,5.73.923l.013.007c1.577,1.191,3.263,2.7,4.928,2.661v-.045a24.087,24.087,0,0,0,2.718-.155,11.609,11.609,0,0,1-3.92,2.6l.021.239h5.623c-.048-.072-.1-.144-.14-.219,3.913-1.276,7.395,1.725,10.887-1.128,3.865,2.878,9.033-1.212,12.539,1.129.29-.287.07-.634-.123-.949-1.409-.088-2.848-.209-4.357-.413-.027-1.654.977-.322,1-1.82.341.568,1.249,1.969,1.325-.249.188.407.216,1.245.434,1.569,2.154-.688,4.572.765,6.4-1.226a2.939,2.939,0,0,0,3.3.5c.233.694-.033.665-.333.6a.7.7,0,0,0,.057.162c.172-.022.344-.045.519-.064.091-.067.178-.092.257-.031a11.74,11.74,0,0,1,1.344-.051,2.628,2.628,0,0,1,.031-.814c.245-.193.239.289.219.809.107.005.218.014.327.02a3.678,3.678,0,0,1,.116-.788c.736.414,1.816-.343,2.37.968a12.486,12.486,0,0,0,4.595-.384,3.631,3.631,0,0,0,.543.559c.857-.318,1.8.745,2.3-.461a2.5,2.5,0,0,0,1.34.713,4.812,4.812,0,0,1,1.174-.084c1.218-.335,2.383-1.223,3.55-.761a9.039,9.039,0,0,0,.008.979c.053-.011.11-.006.163-.02s.133-.031.2-.047a3.742,3.742,0,0,0-.039-.885c1.818-1.1,3.9.076,5.844-.1.017,0,.025.015.04.016q.407-.037.816-.068c.351-.56.8-.406,1.28-.089.839-.05,1.682-.082,2.527-.105.027-.078.057-.138.083-.226a1.417,1.417,0,0,1,.163.218q.746-.019,1.493-.03c0-.112,0-.222,0-.337,2.874-1.677,6.652.6,9.276-.86.247.252.561.341.763.708.929-1.244,2.007-.546,3.1-.568,2.126-.05,4.718-.983,7.41-1.254,4.1-.414,8.717-.641,12.692.508-.194,1.176-1.305,1.34-1.552.394-1.857.97-4.068.85-6.2.993a.894.894,0,0,0-.367.449c4.985-.058,10.043.021,15.484.235a7.718,7.718,0,0,1-.659-.441c.055-.268.107-.537.231-.582a2.418,2.418,0,0,0,1.23.709c.169-.252.313-.544.623-.555,2.347-.115,3.462-.138,3.935-.124.464-.1,1.433-.263,3.307-.538,3.612,1.362,7.445-.131,11.548-.285.979-.041,2,.829,2.971.788.427-.015.871-.5,1.319-.607.115-.027,1.19-.052,2.8-.074,0,0,8.522-.086,8.747-.087.889.109,1.807.805,2.677.768.427-.015.871-.5,1.318-.607.376-.089.759-.15,1.142-.2l1.191-.011,5.823.434h2.664c1.7.276,3.4.587,5.047.841a4.707,4.707,0,0,0,.364-.506,3.35,3.35,0,0,0,.24.6c.052.008,3.581-.368,3.633-.361l-3.476-2.721h-.036c.073-.1.124-.265.094-.677-.014-.981-.442-.68-.594-1.232.458-.03.687.369,1.008-.162,2.845.2,5.756,1.136,7.359-1.859-2.023-.767-6.209-.783-8.1-1.762,1.652-.84,3.9.1,6.116-.129-.014-.993-.692-.673-.456-2.156a10.4,10.4,0,0,1-2.292-1.291c-.623-1.2.825-1.16.309-2.134-.763-.606-.575,1.363-1.226,1.8.111-.072-.729-.943-.763-.939-.11.016-.337.483-.568.74-.175-.581-.313-1.25-.478-1.922a1.148,1.148,0,0,0,.23-.235A18.063,18.063,0,0,0,965.8,392.877ZM800.533,411.04c.993-.706,2.462-.067,3.637-.245C803.033,411.925,801.855,411.314,800.533,411.04Zm15.206.379c-.52.09-1.542.38-1.982-.374.828-2.02,1.306.482,2.208-1.166.539.7,2.488,1.957,2.538-.528l.662.027c-.1.45-.093,1.2-.445.912.669.753,1.267-.235,1.981.39C819.582,412.557,817.415,411.129,815.738,411.419Zm24.289-5.869c.08-1.744.773-3.118,1.236-2.7C841.639,405.119,840.655,406.954,840.027,405.55Zm3.4,2.1c-.388.026-.354-1.076-.652-1.288a10.115,10.115,0,0,1-.677,1.813c-.267.108-.235-.584-.549-.352.291-2.014.578-3.954,1.8-3.9.162.88.32,1.773.532,2.519C843.864,407.236,843.448,406.852,843.432,407.648Zm59.776,2.105c-.344-.211-.44.607-.659-.1C902.448,408.344,903.352,408.482,903.208,409.754Zm43.617-1.208v0l.041,0Z" transform="translate(-787.23 -348.953)"/><path class="a" d="M926.89,397.777c-1.378.206,1.226.026,0,0Z" transform="translate(-803.571 -336.599)"/></g></g></svg>